<?xml version="1.0" standalone="no"?><!DOCTYPE svg PUBLIC "-//W3C//DTD SVG 1.1//EN" "http://www.w3.org/Graphics/SVG/1.1/DTD/svg11.dtd"><svg t="1672361861544" class="icon" viewBox="0 0 1080 1024" version="1.1" xmlns="http://www.w3.org/2000/svg" p-id="3669" xmlns:xlink="http://www.w3.org/1999/xlink" width="210.9375" height="200"><path d="M109.738667 498.289778h492.771555c52.110222 0 90.510222-27.420444 102.4-74.069334 0.910222-4.551111 2.730667-10.979556 4.551111-18.261333a614.4 614.4 0 0 1 14.677334-53.987555h190.122666c20.138667 0 36.579556 16.497778 36.579556 36.579555v2.787556l-13.653333 171.861333c0 20.138667 16.384 36.579556 36.522666 36.579556 20.138667 0 36.579556-16.497778 36.579556-36.579556v-0.910222L1024 387.640889c0-60.302222-49.379556-109.681778-109.738667-109.681778h-21.048889V102.4c0-56.661333-45.681778-102.4-102.4-102.4H232.277333c-56.661333 0-102.4 45.738667-102.4 102.4v322.730667H109.795556C49.379556 425.130667 0 474.510222 0 537.6l36.579556 335.530667c0 60.302222 49.379556 109.738667 109.681777 109.738666h532.138667a36.807111 36.807111 0 0 0 33.848889-36.579555 36.807111 36.807111 0 0 0-33.848889-36.579556H146.261333c-20.081778 0-36.522667-16.497778-36.522666-39.310222l-36.579556-335.530667c0-20.138667 16.440889-36.579556 36.579556-36.579555zM202.979556 102.4c0-16.497778 13.653333-30.151111 30.151111-30.151111h558.648889c16.497778 0 30.151111 13.653333 30.151111 30.151111v176.469333h-118.897778c-0.853333 0-1.763556 0.910222-2.673778 0.910223a28.16 28.16 0 0 0-11.946667 2.730666c-0.853333 0-0.853333 0.910222-1.763555 0.910222a37.774222 37.774222 0 0 0-10.069333 6.428445c-19.228444 18.261333-28.330667 54.840889-39.310223 100.522667-1.820444 6.428444-2.730667 11.946667-3.697777 16.497777-1.820444 6.371556-4.551111 19.171556-31.061334 19.171556H202.979556V102.4z m706.616888 588.515556l111.559112 103.310222a36.408889 36.408889 0 0 1 0 52.110222 36.124444 36.124444 0 0 1-25.6 10.979556 36.124444 36.124444 0 0 1-25.6-10.979556l-47.559112-48.469333v182.840889c0 20.138667-16.440889 36.579556-36.579555 36.579555a36.693333 36.693333 0 0 1-36.522667-36.579555v-181.930667l-47.559111 48.469333a34.588444 34.588444 0 0 1-25.6 10.979556 36.124444 36.124444 0 0 1-25.6-10.979556 36.408889 36.408889 0 0 1 0-52.110222l110.592-102.4a37.546667 37.546667 0 0 1 25.6-10.069333c8.248889 0 16.497778 2.730667 22.869333 8.248889z" fill="#434343" p-id="3670"></path></svg>